<?xml version="1.0" encoding="utf-8"?>
<!-- Generator: Adobe Illustrator 16.0.0, SVG Export Plug-In . SVG Version: 6.00 Build 0)  -->
<!DOCTYPE svg PUBLIC "-//W3C//DTD SVG 1.1//EN" "http://www.w3.org/Graphics/SVG/1.1/DTD/svg11.dtd">
<svg version="1.1" id="Layer_1" xmlns="http://www.w3.org/2000/svg" xmlns:xlink="http://www.w3.org/1999/xlink" x="0px" y="0px"
	 width="286.465px" height="409.597px" fill="#c9451c" viewBox="0 0 286.465 409.597" enable-background="new 0 0 286.465 409.597"
	 xml:space="preserve">
<g>
	<defs>
		<rect id="SVGID_1_" width="286.465" height="409.597"/>
	</defs>
	<clipPath id="SVGID_2_">
		<use xlink:href="#SVGID_1_"  overflow="visible"/>
	</clipPath>
	<path clip-path="url(#SVGID_2_)" d="M143.23,0C64.254,0,0,64.254,0,143.23c0,31.301,7.695,61.133,23.523,91.207
		c13.993,26.586,33.043,51.11,51.469,74.825c23.039,29.656,46.863,60.324,62.344,96.449c1.012,2.358,3.332,3.886,5.895,3.886
		c2.566,0,4.887-1.527,5.898-3.886c15.48-36.125,39.305-66.793,62.344-96.449c18.426-23.715,37.473-48.239,51.469-74.825
		c15.828-30.074,23.523-59.906,23.523-91.207C286.465,64.254,222.211,0,143.23,0 M201.344,301.394
		c-20.824,26.801-42.273,54.411-58.113,86.485c-15.839-32.074-37.29-59.681-58.109-86.485
		c-37.18-47.858-72.293-93.058-72.293-158.164c0-71.902,58.496-130.402,130.402-130.402S273.637,71.324,273.637,143.23
		C273.637,208.336,238.523,253.54,201.344,301.394"/>
	<path clip-path="url(#SVGID_2_)" d="M237.793,130.855c-5.465-43.316-41.008-77.996-84.512-82.453
		c-18.828-1.933-37.519,1.606-54.062,10.227c-3.141,1.64-4.36,5.511-2.723,8.652c1.637,3.145,5.512,4.359,8.652,2.723
		c14.309-7.457,30.5-10.516,46.825-8.844c37.629,3.859,68.371,33.844,73.098,71.297c3.246,25.746-5.309,50.937-23.477,69.109
		c-18.168,18.175-43.355,26.742-69.102,23.503c-17.527-2.203-34.254-10.366-47.105-22.988
		c-12.86-12.625-21.309-29.203-23.801-46.672c-3.074-21.555,2.133-43,14.66-60.383c0.02-0.023,0.149-0.113,0.356-0.113h13.656
		c0.187,0,0.355,0.125,0.41,0.305l16.133,53.785c2.57,8.566,10.304,14.32,19.246,14.32h44.551c11.078,0,20.094-9.012,20.094-20.094
		v-41.047c0-3.539-2.871-6.414-6.414-6.414h-80.054l-1.27-4.234c-1.695-5.648-6.797-9.445-12.695-9.445H76.602
		c-4.282,0-8.305,2.035-10.762,5.441c-14.477,20.082-20.5,44.836-16.953,69.691c2.886,20.243,12.656,39.422,27.511,54.012
		c14.844,14.574,34.2,24.013,54.497,26.563c4.125,0.519,8.23,0.772,12.312,0.772c25.305,0,49.383-9.851,67.457-27.933
		C231.652,189.64,241.543,160.558,237.793,130.855 M177.863,108.597v34.633c0,4.008-3.262,7.27-7.27,7.27h-44.547
		c-3.235,0-6.031-2.082-6.961-5.18l-11.016-36.719h69.793V108.597z"/>
	<path clip-path="url(#SVGID_2_)" d="M109.027,171.023c-7.308,0-13.254,5.946-13.254,13.254c0,7.309,5.946,13.254,13.254,13.254
		c7.309,0,13.254-5.945,13.254-13.254C122.281,176.969,116.336,171.023,109.027,171.023"/>
	<path clip-path="url(#SVGID_2_)" d="M177.438,171.023c-7.31,0-13.259,5.946-13.259,13.254c0,7.309,5.949,13.254,13.259,13.254
		c7.308,0,13.253-5.945,13.253-13.254C190.691,176.969,184.746,171.023,177.438,171.023"/>
</g>
</svg>
